# xmcd CD database file
#
# Track frame offsets:
#	182
#	12760
#	26217
#	52122
#	64825
#	77940
#	91197
#	101682
#	115350
#	122877
#	135495
#	147980
#	165632
#	179160
#	195555
#	211202
#	227922
#	244422
#
# Disc length: 3653 seconds
#
# Revision: 0
# Processed by: cddbd v1.5.1PL0 Copyright (c) Steve Scherf et al.
# Submitted via: CDex 1.51
#
DISCID=0b0e4312
DTITLE=RHYTHM and BLUES-VOL-1 - RHYTHM and BLUES
DYEAR=1999
DGENRE=Blues
TTITLE0=I'M IN THE MOOD
TTITLE1=CAN'T LOSE WHAT YOU AIN'T NEVER HAD
TTITLE2=RED ROOSTER
TTITLE3=LIFE I USED TO LIVE
TTITLE4=SHAME, SHAME, SHAME
TTITLE5=DUST MUY BROOM
TTITLE6=DIMPLES
TTITLE7=SAD LETTER
TTITLE8=TERRAPLANE BLUES
TTITLE9=MEAN MISTREATRER
TTITLE10=LAIN'T SUPERTITIOUS
TTITLE11=MAY BE THE LAST TIME
TTITLE12=THAT'S ALL RIGHT
TTITLE13=COLD AND LONESOME
TTITLE14=WALTER'S BLUES
TTITLE15=MONA
TTITLE16=LONESOME BLUES
TTITLE17=TODAY
EXTD=YEAR: 1999
EXTT0=
EXTT1=
EXTT2=
EXTT3=
EXTT4=
EXTT5=
EXTT6=
EXTT7=
EXTT8=
EXTT9=
EXTT10=
EXTT11=
EXTT12=
EXTT13=
EXTT14=
EXTT15=
EXTT16=
EXTT17=
PLAYORDER=
